<svg xmlns="http://www.w3.org/2000/svg" viewBox="0 0 185.98 182.36"><defs><style>.cls-1{fill:#598053;}</style></defs><title>brawl</title><g id="Layer_2" data-name="Layer 2"><g id="Layer_1-2" data-name="Layer 1"><path class="cls-1" d="M37.93,115.56,29,106.9a7,7,0,0,0-9.84.14l-.1.11a7.43,7.43,0,0,0,.13,10.28l10.71,10.93L2.32,157a8.31,8.31,0,0,0,.16,11.68l10.61,10.41a8.29,8.29,0,0,0,11.73-.11l0,0,27.35-28.23L64,162.33a7.1,7.1,0,0,0,10-.06l.13-.14a7.43,7.43,0,0,0-.23-10.39l-8.51-8.32,19.43-20.94L58,95.12Z"/><path class="cls-1" d="M119.92,143.66l-8,8.58a7.67,7.67,0,0,0,0,10.47,6.9,6.9,0,0,0,9.75.3l.18-.18,11.48-11.62,28.08,28.66a8.29,8.29,0,0,0,11.73.13l.28-.29,10.3-11.13a8.29,8.29,0,0,0-.25-11.53l-28.06-27.82,10.84-11.71a7.65,7.65,0,0,0-.19-10.6,7.2,7.2,0,0,0-10.19,0,.47.47,0,0,1-.1.1l-7.68,7.92L34.68.15H7.05V28Z"/><polygon class="cls-1" points="127.73 78.88 178.27 27.98 178.27 0 150.16 0 100.3 51.5 127.73 78.88"/></g></g></svg>