<svg id="Lager_1" data-name="Lager 1" xmlns="http://www.w3.org/2000/svg" viewBox="0 0 172.43 172.43"><defs><style>.cls-1{fill:none;stroke:#f2eae0;stroke-miterlimit:10;stroke-width:8px;}.cls-2{fill:#f2eae0;}</style></defs><title>concept</title><circle class="cls-1" cx="86.21" cy="86.21" r="82.21"/><path class="cls-2" d="M94.22,53.22A20.44,20.44,0,0,0,73.8,73.64a3.41,3.41,0,0,0,6.81,0A13.62,13.62,0,0,1,94.22,60a3.41,3.41,0,1,0,0-6.81Zm-17,80.65a3.41,3.41,0,0,0,.57,1.88L83,143.59a3.41,3.41,0,0,0,2.84,1.52h16.77a3.39,3.39,0,0,0,2.83-1.52l5.21-7.84a3.41,3.41,0,0,0,.57-1.88v-9.18h-34Zm17-97.67A37.43,37.43,0,0,0,66.05,98.27c3.54,4,9.09,12.5,11.15,19.6H87.41v0a9.84,9.84,0,0,0-.46-3A66.94,66.94,0,0,0,73.73,91.54a27.23,27.23,0,1,1,41,0,67.22,67.22,0,0,0-13.21,23.28,10.1,10.1,0,0,0-.47,3v0h10.2c2.06-7.1,7.62-15.56,11.15-19.6A37.42,37.42,0,0,0,94.22,36.2Z" transform="translate(-8.01 -4.44)"/></svg>