<svg xmlns="http://www.w3.org/2000/svg" xmlns:xlink="http://www.w3.org/1999/xlink" viewBox="0 0 52 52"><defs><style>.cls-1{fill:none;}.cls-2{clip-path:url(#clip-path);}.cls-3{fill:#1e211a;}</style><clipPath id="clip-path"><rect class="cls-1" width="52" height="52"/></clipPath></defs><title>Asset 1</title><g id="Layer_2" data-name="Layer 2"><g id="Layer_1-2" data-name="Layer 1"><g class="cls-2"><g id="arrow-alt-circle-down-regular"><path id="arrow-alt-circle-down-regular-2" class="cls-3" d="M26,0A26,26,0,1,0,52,26,26,26,0,0,0,26,0Zm0,47A21,21,0,1,1,47,26h0A21,21,0,0,1,26,47ZM22.65,13.84V26h-7a1.27,1.27,0,0,0-1.26,1.26,1.3,1.3,0,0,0,.37.89L25.11,38.53a1.26,1.26,0,0,0,1.78,0h0L37.27,28.15a1.26,1.26,0,0,0,0-1.78,1.24,1.24,0,0,0-.89-.37h-7V13.84a1.26,1.26,0,0,0-1.25-1.26H23.9A1.26,1.26,0,0,0,22.65,13.84Z"/></g></g></g></g></svg>