<svg id="Layer_1" data-name="Layer 1" xmlns="http://www.w3.org/2000/svg" viewBox="0 0 540 327"><defs><style>.cls-1,.cls-3{fill:none;stroke:#598053;stroke-miterlimit:10;}.cls-1{stroke-width:10px;}.cls-2{fill:#598053;}.cls-3{stroke-linecap:round;stroke-width:25px;}</style></defs><title>register_icon</title><rect class="cls-1" x="5" y="5" width="530" height="317" rx="40.49" ry="40.49"/><g id="Layer_2" data-name="Layer 2"><g id="Layer_1-2" data-name="Layer 1-2"><path class="cls-2" d="M194,229.87a.52.52,0,0,1-.4-.52V222a54.63,54.63,0,0,0,10.09-18.55c5.18-4.77,7.49-12.32,8.73-16.38,2.12-6.6,4-16.18-1.52-23l-.25-.32c2.69-12,6-40.37-17.18-54.75a12.83,12.83,0,0,0,4.09-9.7,1.28,1.28,0,0,0-.49-.92,1.53,1.53,0,0,0-1-.3c-.3,0-29.32,3.06-43.31.37-14.33-2.77-30.11,7.4-33.35,17.69a21.6,21.6,0,0,0-13.75,7.21c-6.35,7.25-8.27,18.82-5.77,34.32a54.24,54.24,0,0,0,.76,6l-.26.3c-5.56,6.8-3.53,16.34-1.52,23,1.25,4.07,3.53,11.62,8.72,16.37A55,55,0,0,0,117.67,222v7.19a.5.5,0,0,1-.39.52c-19.85,4.42-66,18.05-66,52a7,7,0,0,0,7.16,6.75H252.81a7,7,0,0,0,7.21-6.68v0c0-33.95-46.17-47.55-66-51.75m-38.34,26a39.15,39.15,0,0,1-31.23-14.42,14,14,0,0,0,6.79-7.51,50.24,50.24,0,0,0,10.43,4.84,45.11,45.11,0,0,0,28,0A51.35,51.35,0,0,0,180,234a14.08,14.08,0,0,0,6.83,7.6A39.13,39.13,0,0,1,155.65,256M111.33,183.9c-2.56-8.39-1.48-11.43-.61-12.49a3.07,3.07,0,0,1,2.54-1h.61a1.35,1.35,0,0,0,1.44-1.17c0-.18,1.61-18.27,13.13-24.76,5.76-3.26,13.16-3.13,22,.37,18.06,7.23,31.52,6.72,39.7,5,9.33,6.42,6.64,16.64,6,18.64v.25a1.34,1.34,0,0,0,1.42,1.71,3.42,3.42,0,0,1,3.08,1c.87,1.06,2,4.11-.61,12.5-3.28,10.74-6,11.79-6.68,11.79a1.3,1.3,0,0,0-1.25,1.08c-1.9,11.46-11.72,25.68-26.78,30.73a30.94,30.94,0,0,1-19.31,0c-15.74-5.13-24.87-19.53-26.73-30.75a1.33,1.33,0,0,0-1.26-1.08c-.73-.06-3.4-1.06-6.68-11.81" transform="translate(-19 -25)"/></g></g><line class="cls-3" x1="270.5" y1="257.4" x2="491.5" y2="257.4"/><line class="cls-3" x1="270.5" y1="191.4" x2="491.5" y2="191.4"/><line class="cls-3" x1="270.5" y1="130.01" x2="491.5" y2="130.01"/><line class="cls-3" x1="270.5" y1="67" x2="491.5" y2="67"/></svg>