<svg xmlns="http://www.w3.org/2000/svg" viewBox="0 0 209.85 205.95"><defs><style>.cls-1{fill:#598053;}</style></defs><title>User</title><g id="Layer_2" data-name="Layer 2"><g id="Layer_1-2" data-name="Layer 1"><path class="cls-1" d="M143.47,142.66a.56.56,0,0,1-.4-.56v-7.91a60.54,60.54,0,0,0,10.14-20.07c5.21-5.16,7.53-13.33,8.78-17.73,2.13-7.14,4.06-17.5-1.53-24.92l-.25-.34c2.7-13,6.06-43.69-17.27-59.25a14.39,14.39,0,0,0,4.11-10.49,1.39,1.39,0,0,0-.49-1,1.47,1.47,0,0,0-1-.32c-.3,0-29.47,3.31-43.53.4-14.41-3-30.27,8-33.53,19.14a21.26,21.26,0,0,0-13.82,7.8c-6.38,7.85-8.31,20.37-5.8,37.14A62.85,62.85,0,0,0,49.65,71l-.26.32C43.8,78.68,45.84,89,47.86,96.2c1.25,4.4,3.55,12.57,8.76,17.71a61,61,0,0,0,10.14,20.22v7.78a.54.54,0,0,1-.4.56C46.41,147.25,0,162,0,198.7A7.25,7.25,0,0,0,7.25,206H202.6a7.24,7.24,0,0,0,7.25-7.25c0-36.74-46.41-51.45-66.38-56m-38.54,28.17a38.3,38.3,0,0,1-31.39-15.61,14.86,14.86,0,0,0,6.83-8.12,48.41,48.41,0,0,0,10.48,5.23,42.22,42.22,0,0,0,28.15,0,49.66,49.66,0,0,0,10.44-5.27,14.92,14.92,0,0,0,6.87,8.23,38.29,38.29,0,0,1-31.38,15.54m-44.55-78c-2.57-9.08-1.48-12.37-.61-13.52a3,3,0,0,1,2.55-1.11h.62a1.38,1.38,0,0,0,1.44-1.27c0-.19,1.62-19.76,13.2-26.79,5.79-3.53,13.23-3.38,22.1.4,18.15,7.83,31.68,7.27,39.9,5.44,9.38,6.94,6.68,18,6,20.16v.28a1.39,1.39,0,0,0,1.43,1.85,3.3,3.3,0,0,1,3.1,1.08c.87,1.15,2,4.44-.62,13.52-3.29,11.63-6,12.76-6.71,12.76a1.35,1.35,0,0,0-1.26,1.17c-1.91,12.4-11.78,27.79-26.92,33.25a29,29,0,0,1-19.41,0c-15.82-5.55-25-21.13-26.87-33.27a1.36,1.36,0,0,0-1.26-1.17c-.74-.06-3.42-1.15-6.72-12.78"/></g></g></svg>