<svg xmlns="http://www.w3.org/2000/svg" viewBox="0 0 211.19 200.96"><defs><style>.cls-1{fill:#598053;}</style></defs><title>Dollars</title><g id="Layer_2" data-name="Layer 2"><g id="Layer_1-2" data-name="Layer 1"><path class="cls-1" d="M157.66,0,0,86.42l18.5,34.29V91.4q2.1-10,19.27-10l95.44-52.78,6.5,1.82q4.86,10.71,17.95,5.36l6.7,2.59,16,29.83L178.34,76a8.31,8.31,0,0,0-7.62,5.44h31.81Z"/><path class="cls-1" d="M152.09,54.49a10.28,10.28,0,1,1-10.28,10.28,10.28,10.28,0,0,1,10.28-10.28"/><path class="cls-1" d="M76,81.56h59.39q-23-41.19-58.62-2.19L76,81.56"/><path class="cls-1" d="M31.32,93H211.19V201H31.32ZM66.83,106.9l-5.35,5.23q-.21,12.59-12.4,12.59l-5.58,5.41v34.2L49.08,170q12.41-1.14,12.4,12.39l5.35,5.14H174.88l5.33-5.14q-1.32-13.29,12.07-12.39l5.47-5.66v-34.2l-5.47-5.41q-12.08,2.55-12.07-12.59l-5.33-5.23Z"/><path class="cls-1" d="M67.29,136.72A10.28,10.28,0,1,1,57,147a10.28,10.28,0,0,1,10.28-10.28"/><path class="cls-1" d="M120,116.16c17.74,0,32.12,13.23,32.12,29.55S137.71,175.26,120,175.26,87.85,162,87.85,145.71s14.38-29.55,32.12-29.55"/><path class="cls-1" d="M173.93,136.72c6.39,0,11.57,4.6,11.57,10.28s-5.18,10.27-11.57,10.27-11.56-4.6-11.56-10.27,5.18-10.28,11.56-10.28"/></g></g></svg>