<svg xmlns="http://www.w3.org/2000/svg" viewBox="0 0 419.02 364.88"><defs><style>.cls-1{fill:#fff;}</style></defs><title>Asset 1</title><g id="Layer_2" data-name="Layer 2"><g id="Layer_1-2" data-name="Layer 1"><g id="Missing_Image" data-name="Missing Image"><g id="Group_78" data-name="Group 78"><g id="Group_77" data-name="Group 77"><g id="Group_76" data-name="Group 76"><path id="Path_28" data-name="Path 28" class="cls-1" d="M119,125.64a33.09,33.09,0,0,0,33.42-32.77v-.65a33.09,33.09,0,0,0-32.76-33.41H119A33.5,33.5,0,0,0,85.54,92.22C85.54,110.27,100.91,125.64,119,125.64Z"/><path id="Path_29" data-name="Path 29" class="cls-1" d="M282,179.77c-18,8.69-32.74,22.72-43.43,40.1H120.29c-2.67,0-6,.67-9.36,0H50.79v-7.35A31.39,31.39,0,0,1,82.12,181.1h53.54c7.35-10,12.7-18,13.37-18.71,4.67-6.68,10-10,16.7-10,9.36,0,14,10,21.39,14,9.36,5.35,16-2,20-9.35a118.64,118.64,0,0,0,9.35-15.37,42.78,42.78,0,0,0,5.35-9.36c2-3.34,4.68-7.35,6.68-10.69l4.68-7.35c.67-.67.67-1.34,1.34-1.34,2-2.67,3.34-4,5.34-4,1.34,0,3.34,1.34,4.68,4C257.29,135,269.32,157.72,282,179.77Z"/></g><path id="Path_30" data-name="Path 30" class="cls-1" d="M0,0V278.67H223.21v-6a82.46,82.46,0,0,1,2-18.05H24.06V24.06H328.13V168.41h1.33a85,85,0,0,1,22.73,2.67V0Z"/></g><path id="Path_31" data-name="Path 31" class="cls-1" d="M328.8,182.44h0c-49.46,0-90.89,40.77-91.56,89.55-.67,51.46,38.76,92.22,89.55,92.89h1.34c24.72,0,47.45-9.35,64.15-26.06A90,90,0,0,0,419,274.66C419.68,223.88,379.58,183.11,328.8,182.44Zm-9.36,160.39c-28.74-4.68-48.12-20.72-57.47-48.12-7.35-21.38-4-42.77,10-62.15l97.57,97.57C354.86,341.49,337.48,345.5,319.44,342.83Zm65.49-27.4-97.57-97.57c16-12,33.41-16,52.13-12.7,28.06,4.68,46.78,20.72,55.46,47.45,7.36,21.39,4,42.77-10,62.82Z"/></g></g></g></g></svg>