<svg xmlns="http://www.w3.org/2000/svg" xmlns:xlink="http://www.w3.org/1999/xlink" viewBox="0 0 695.49 948.19"><defs><style>.cls-1{fill:url(#Namnlös_övertoning_17);}.cls-2{fill:#22441a;}.cls-3{opacity:0.15;}</style><radialGradient id="Namnlös_övertoning_17" cx="781.16" cy="-34.38" r="1555.28" gradientUnits="userSpaceOnUse"><stop offset="0" stop-color="#53b348"/><stop offset="0.06" stop-color="#53ae48"/><stop offset="0.39" stop-color="#539848"/><stop offset="0.71" stop-color="#538b48"/><stop offset="1" stop-color="#538648"/></radialGradient></defs><g id="Lager_2" data-name="Lager 2"><g id="Lager_1-2" data-name="Lager 1"><path class="cls-1" d="M476,938.19a11.21,11.21,0,0,1-11.19-12c0-.51,3.55-59.28,7.42-117.55,2.28-34.25,4.23-61.64,5.81-81.4.94-11.8,1.76-21,2.43-27.36,1.13-10.71,1.6-15.15,6.2-18.13,36.31-23.49,83.5-62.61,102.14-115.54,11-31.34,6.76-53.12,6.72-53.34l-1-4.63,3-3.66,6.92-8.7c-61,36.46-120,66.84-169.86,87.34-9.43,4.07-24.89,16.92-23.21,57.27.4,8.21,4.4,55.7,6.79,84.08,1.3,15.37,2,23.46,2.07,24.82a10.39,10.39,0,0,1-2.71,7.65l-.14.15-61.83,62a10.91,10.91,0,0,1-15.58,0l-61.81-62-.13-.14a10.38,10.38,0,0,1-2.73-7.65c.09-1.39.76-9.46,2.06-24.79,2.39-28.4,6.4-75.92,6.8-84.21,1.68-40.29-13.8-53.14-23.22-57.2-49.9-20.5-108.87-50.88-169.85-87.34l9.86,12.41-1,4.64c0,.16-4.32,21.94,6.72,53.28,18.64,52.93,65.84,92,102.15,115.54,4.6,3,5.07,7.42,6.2,18.13.67,6.36,1.48,15.56,2.43,27.36,1.57,19.76,3.53,47.15,5.8,81.4,3.88,58.27,7.4,117,7.43,117.62a11.2,11.2,0,0,1-17,10.29c-4.23-2.18-30.64-16.36-58.26-43.74-39.17-38.84-62-86-66.13-136.47L85.38,732,102,744.6A440.92,440.92,0,0,1,21.09,574.68c-14.25-61-10.9-104.75-10.44-109.89.5-28.57,2.56-57.44,4.54-85.36l.6-8.55.17-.73c1.23-5.52,5.56-9.23,10.78-9.23A10.71,10.71,0,0,1,33.07,363l8.7,6.34q5.1,3.78,10.36,7.6l1.15-4c24-83.59,77.26-144.78,146.19-167.87l7.61-2.55,1.82,3c-1.61-33-3.54-71-4.41-87.94l-.32-6.06,5.26-3.13c54.05-31.94,95.73-61.93,127.4-91.66l3.81-3.85a10.15,10.15,0,0,1,14.26,0l3.76,3.8C390.33,46.48,432,76.47,486.07,108.41l5.14,3L491,117.6c-.88,16.94-2.81,54.91-4.42,87.94l1.83-3,7.6,2.55c68.93,23.09,122.22,84.28,146.19,167.87l1.16,4q5.22-3.78,10.28-7.55l8.77-6.39a10.71,10.71,0,0,1,6.33-2.08c5.22,0,9.55,3.7,10.79,9.23l.16.73.61,8.6c2,27.9,4,56.75,4.53,85.31.47,5.14,3.81,48.92-10.43,109.89A441.1,441.1,0,0,1,634.22,681.6a444.39,444.39,0,0,1-40.77,63L610.11,732l-3.92,24.37c-4.1,50.45-27,97.63-66.13,136.47-27.62,27.38-54,41.56-58.27,43.74A11.23,11.23,0,0,1,476,938.19Z"/><path class="cls-2" d="M347.74,20a.15.15,0,0,1,.11,0l3.83,3.87C383.6,53.9,426.36,84.75,481,117a.07.07,0,0,1,0,.06c-1.59,30.93-5.12,100.74-6.44,131.07a1.73,1.73,0,0,0,1.77,1.85,1.69,1.69,0,0,0,1.58-1.06c3.72-8.65,9.57-25.52,14.92-34.41C562,237.71,610.88,300,632.59,375.68c-48,49.8-111.41,87.61-182.48,130.26a1.07,1.07,0,0,0,.52,2,1.13,1.13,0,0,0,.51-.13c68-35.27,148.54-85.88,208.46-130.38l8.7-6.34a.72.72,0,0,1,.44-.16c.71,0,1,1.41,1,1.41,2.18,31,4.54,62,5.07,93,0,0,17.87,177.53-135.08,324a1.23,1.23,0,0,0,1.38,2C561.9,781,596.28,755,596.28,755l0,.17C586.91,873,476.78,927.91,476.78,927.91a1.19,1.19,0,0,1-.76.28,1.21,1.21,0,0,1-1.21-1.3s14-234.58,17.31-236.71c133.44-86.36,113.21-179.35,113.21-179.35l42.6-53.62C579.89,500.78,501.29,545,430.69,574c-20.46,8.77-30.75,32.85-29.34,66.91.6,12.29,8.61,104.86,8.88,109.11a.35.35,0,0,1-.1.26L348.4,812.25a.87.87,0,0,1-.66.29h0a.87.87,0,0,1-.66-.29l-61.73-61.94a.35.35,0,0,1-.09-.26c.27-4.25,8.27-96.82,8.87-109.11,1.42-34.06-8.87-58.14-29.33-66.91-70.6-29-149.21-73.25-217.24-116.82l42.59,53.62s-20.23,93,113.21,179.35c3.29,2.13,17.32,236.71,17.32,236.71a1.21,1.21,0,0,1-2,1S108.57,873,99.23,755.17l0-.17s34.38,26,55.14,36.3a1.22,1.22,0,0,0,.54.13,1.25,1.25,0,0,0,.83-2.14C2.77,642.87,20.65,465.34,20.65,465.34c.52-31,2.88-62,5.07-93,0,0,.31-1.41,1-1.41a.7.7,0,0,1,.44.16l8.7,6.34c59.92,44.5,140.43,95.11,208.47,130.38a1.13,1.13,0,0,0,.51.13,1.07,1.07,0,0,0,.52-2c-71.07-42.65-134.53-80.46-182.49-130.26,21.72-75.71,70.58-138,139.76-161.15,5.35,8.89,11.19,25.76,14.92,34.41a1.67,1.67,0,0,0,1.57,1.06,1.74,1.74,0,0,0,1.78-1.85c-1.32-30.33-4.85-100.14-6.45-131.07a.06.06,0,0,1,0-.06C269.12,84.75,311.89,53.9,343.8,23.91L347.64,20a.14.14,0,0,1,.1,0m0-20a20,20,0,0,0-14.2,5.86l-.05,0-.06.06-3.58,3.61C299.16,38.36,256.93,68.72,204.33,99.8a20,20,0,0,0-9.83,18.33c.78,15.05,2.39,46.72,3.87,76.74l-2.08.7a207,207,0,0,0-53.1,26.9,230.6,230.6,0,0,0-43.5,40c-22.93,27.17-41.17,60.88-53.08,98L39,354.92a20.61,20.61,0,0,0-12.22-4c-9.86,0-18.3,7-20.54,17.06l-.33,1.45-.1,1.49-.56,7.81c-2,27.94-4,56.82-4.55,85.54C.06,471.4-2.89,516,11.35,577A451.06,451.06,0,0,0,52.44,686.3q9.75,18.32,21.21,35.75l5.71,35.52a213.92,213.92,0,0,0,24.85,83.76,247.35,247.35,0,0,0,44.18,58.61c28,27.75,55.05,42.57,60.46,45.39a21.2,21.2,0,0,0,31.79-19.63h0c0-.59-3.55-59.39-7.43-117.69-2.28-34.3-4.24-61.73-5.82-81.54-.94-11.88-1.77-21.17-2.45-27.61-.39-3.74-.74-6.59-1.07-8.72-.59-3.8-1.81-11.68-9.64-16.75-27.91-18.06-50.76-37.77-67.93-58.57-13.46-16.3-23.46-33.31-29.73-50.54-8-22.1-7.82-39-7.24-46C154.42,544.36,206,571.5,257,592.46c16.9,7.37,17.61,35.66,17.12,47.58-.41,8.31-4.39,55.51-6.78,83.75-1.46,17.38-2,23.59-2.07,25a20.46,20.46,0,0,0,5.34,15.07l.27.29.28.28,61.65,61.87a20.91,20.91,0,0,0,29.8,0l61.66-61.87.28-.28.27-.29a20.48,20.48,0,0,0,5.34-15c-.09-1.44-.61-7.65-2.08-25-2.38-28.24-6.36-75.44-6.78-83.75-.48-11.92.23-40.21,17.13-47.58,51-21,102.61-48.1,147.69-74.17.59,6.93.81,23.88-7.24,46-6.27,17.23-16.27,34.24-29.72,50.54-17.17,20.8-40,40.51-67.93,58.57-7.84,5.07-9.06,13-9.64,16.75-.33,2.13-.68,5-1.08,8.72-.68,6.44-1.5,15.73-2.45,27.61-1.58,19.81-3.53,47.24-5.82,81.54-3.87,58.3-7.39,117.1-7.43,117.69a21.2,21.2,0,0,0,31.8,19.63c5.41-2.82,32.47-17.64,60.46-45.39a247.3,247.3,0,0,0,44.17-58.61,213.88,213.88,0,0,0,24.85-83.75L621.88,722q11.43-17.38,21.17-35.67A451,451,0,0,0,684.13,577c14.25-61,11.3-105.56,10.69-112.69-.51-28.72-2.56-57.61-4.55-85.55l-.55-7.8-.11-1.49-.32-1.46c-2.24-10-10.69-17.05-20.54-17.05a20.59,20.59,0,0,0-12.22,4l-7.65,5.57c-11.91-37.11-30.15-70.82-53.08-98a230.66,230.66,0,0,0-43.51-40,206.82,206.82,0,0,0-53.1-26.9l-2.07-.7c1.47-30,3.09-61.69,3.87-76.76a20,20,0,0,0-9.86-18.32c-52.58-31.07-94.81-61.43-125.5-90.21L362.05,6,362,5.91l-.05,0A20,20,0,0,0,347.74,0Z"/><g class="cls-3"><path d="M347.74,20a.14.14,0,0,0-.1,0l-3.84,3.87c-31.91,30-74.68,60.84-129.29,93.11a.06.06,0,0,0,0,.06c1.6,30.93,5.13,100.74,6.45,131.07a1.75,1.75,0,0,1-3.35.79c-3.73-8.65-9.57-25.52-14.92-34.41C133.47,237.71,84.61,300,62.89,375.68c48,49.8,111.42,87.61,182.49,130.26a1.06,1.06,0,0,1-1,1.86c-68-35.27-148.55-85.88-208.47-130.38l-8.7-6.34c-1-.74-1.46,1.25-1.46,1.25-2.19,31-4.55,62-5.07,93,0,0-17.88,177.53,135.07,324a1.23,1.23,0,0,1-1.37,2C133.59,781,99.21,755,99.21,755l0,.17C108.57,873,218.7,927.91,218.7,927.91a1.21,1.21,0,0,0,2-1s-14-234.58-17.32-236.71C69.92,603.82,90.15,510.83,90.15,510.83L47.56,457.21C115.59,500.78,194.2,545,264.8,574c20.46,8.77,30.75,32.85,29.33,66.91-.6,12.29-8.6,104.86-8.87,109.11a.35.35,0,0,0,.09.26l61.73,61.94a.87.87,0,0,0,.66.29h0V20Z"/></g></g></g></svg>