<svg xmlns="http://www.w3.org/2000/svg" viewBox="0 0 695.49 948.19"><defs><style>.cls-1{fill:#fff;}</style></defs><g id="Lager_2" data-name="Lager 2"><g id="Lager_1-2" data-name="Lager 1"><path class="cls-1" d="M347.74,20a.15.15,0,0,1,.11,0l3.83,3.87C383.6,53.9,426.37,84.75,481,117a.07.07,0,0,1,0,.06c-1.59,30.93-5.12,100.74-6.44,131.07a1.73,1.73,0,0,0,1.77,1.85,1.69,1.69,0,0,0,1.58-1.06c3.73-8.65,9.57-25.52,14.92-34.41C562,237.71,610.88,300,632.59,375.68c-48,49.8-111.41,87.61-182.48,130.26a1.07,1.07,0,0,0,.52,2,1.13,1.13,0,0,0,.51-.13c68-35.27,148.54-85.88,208.46-130.38l8.7-6.34a.72.72,0,0,1,.44-.16c.71,0,1,1.41,1,1.41,2.18,31,4.54,62,5.07,93,0,0,17.87,177.53-135.08,324a1.23,1.23,0,0,0,1.38,2C561.9,781,596.28,755,596.28,755l0,.17C586.91,873,476.78,927.91,476.78,927.91a1.19,1.19,0,0,1-.76.28,1.21,1.21,0,0,1-1.21-1.3s14-234.58,17.31-236.71c133.44-86.36,113.21-179.35,113.21-179.35l42.6-53.62C579.89,500.78,501.29,545,430.69,574c-20.46,8.77-30.75,32.85-29.33,66.91.59,12.29,8.6,104.86,8.87,109.11a.35.35,0,0,1-.1.26L348.4,812.25a.87.87,0,0,1-.66.29h0a.87.87,0,0,1-.66-.29l-61.73-61.94a.35.35,0,0,1-.09-.26c.27-4.25,8.27-96.82,8.87-109.11,1.42-34.06-8.87-58.14-29.33-66.91-70.6-29-149.21-73.25-217.24-116.82l42.59,53.62s-20.23,93,113.21,179.35c3.29,2.13,17.32,236.71,17.32,236.71a1.21,1.21,0,0,1-2,1S108.57,873,99.23,755.17l0-.17s34.38,26,55.14,36.3a1.22,1.22,0,0,0,.54.13,1.25,1.25,0,0,0,.83-2.14C2.77,642.87,20.65,465.34,20.65,465.34c.52-31,2.88-62,5.07-93,0,0,.31-1.41,1-1.41a.7.7,0,0,1,.44.16l8.7,6.34c59.92,44.5,140.43,95.11,208.47,130.38a1.13,1.13,0,0,0,.51.13,1.07,1.07,0,0,0,.52-2c-71.07-42.65-134.53-80.46-182.49-130.26,21.72-75.71,70.58-138,139.76-161.15,5.35,8.89,11.19,25.76,14.92,34.41a1.67,1.67,0,0,0,1.57,1.06,1.74,1.74,0,0,0,1.78-1.85c-1.32-30.33-4.85-100.14-6.45-131.07a.08.08,0,0,1,0-.06C269.12,84.75,311.89,53.9,343.8,23.91L347.64,20a.14.14,0,0,1,.1,0h0m0-20a20,20,0,0,0-14.2,5.86l-.05,0-.06.06-3.58,3.61C299.16,38.36,256.93,68.72,204.33,99.8a20,20,0,0,0-9.83,18.31h0c.78,15.07,2.39,46.74,3.87,76.76l-2.08.7a207,207,0,0,0-53.1,26.9,230.6,230.6,0,0,0-43.5,40c-22.93,27.17-41.17,60.88-53.08,98L39,354.92a20.61,20.61,0,0,0-12.22-4c-9.85,0-18.3,7-20.54,17.06l-.33,1.45-.1,1.49-.56,7.8c-2,27.94-4,56.83-4.55,85.55C.06,471.39-2.89,516,11.35,577A451.06,451.06,0,0,0,52.44,686.3Q62.18,704.57,73.61,722l5.75,35.61a213.88,213.88,0,0,0,24.85,83.75,247.35,247.35,0,0,0,44.18,58.61c28,27.75,55.05,42.57,60.46,45.39a21.2,21.2,0,0,0,31.79-19.63h0c0-.59-3.55-59.39-7.43-117.69-2.28-34.3-4.24-61.73-5.82-81.54-.94-11.88-1.77-21.17-2.45-27.61-.39-3.74-.74-6.59-1.07-8.72-.59-3.8-1.81-11.68-9.64-16.75-27.91-18.06-50.76-37.77-67.93-58.57-13.46-16.3-23.46-33.31-29.73-50.54-8-22.1-7.82-39-7.24-46C154.42,544.36,206,571.5,257,592.46c16.9,7.36,17.61,35.66,17.12,47.58-.41,8.31-4.39,55.51-6.78,83.75-1.46,17.38-2,23.59-2.07,25a20.46,20.46,0,0,0,5.34,15.07l.27.29.28.28,61.65,61.87a20.91,20.91,0,0,0,29.79,0l61.67-61.88.28-.28.27-.29a20.48,20.48,0,0,0,5.34-15c-.09-1.44-.61-7.65-2.08-25-2.38-28.24-6.36-75.44-6.78-83.75-.48-11.92.23-40.22,17.13-47.58,51-21,102.61-48.1,147.7-74.17.58,6.94.8,23.89-7.25,46-6.27,17.23-16.27,34.24-29.72,50.54-17.17,20.8-40,40.51-67.93,58.57-7.84,5.07-9.06,13-9.64,16.75-.33,2.13-.68,5-1.08,8.72-.68,6.44-1.5,15.73-2.45,27.61-1.58,19.81-3.53,47.24-5.82,81.54-3.87,58.3-7.39,117.1-7.43,117.69a21.2,21.2,0,0,0,31.8,19.63c5.41-2.82,32.47-17.64,60.46-45.39a247.3,247.3,0,0,0,44.17-58.61,213.88,213.88,0,0,0,24.85-83.75L621.88,722q11.43-17.38,21.17-35.67A451,451,0,0,0,684.13,577c14.25-61,11.3-105.57,10.69-112.69-.51-28.72-2.56-57.61-4.55-85.55l-.55-7.8-.11-1.49-.32-1.46c-2.24-10-10.69-17.05-20.54-17.05a20.59,20.59,0,0,0-12.22,4l-7.65,5.57c-11.91-37.11-30.15-70.82-53.08-98a230.66,230.66,0,0,0-43.51-40,206.66,206.66,0,0,0-53.1-26.9l-2.07-.7c1.47-30,3.09-61.69,3.87-76.76a20,20,0,0,0-9.86-18.32c-52.58-31.07-94.81-61.43-125.5-90.21L362.05,6,362,5.91l-.05,0A20,20,0,0,0,347.74,0Z"/></g></g></svg>